<?xml version="1.0" standalone="no"?>
<!DOCTYPE svg PUBLIC "-//W3C//DTD SVG 20010904//EN"
 "http://www.w3.org/TR/2001/REC-SVG-20010904/DTD/svg10.dtd">
<svg version="1.0" xmlns="http://www.w3.org/2000/svg"
 width="1513.000000pt" height="540.000000pt" viewBox="0 0 1513.000000 540.000000"
 preserveAspectRatio="xMidYMid meet">

<g transform="translate(0.000000,540.000000) scale(0.100000,-0.100000)"
fill="#000000" stroke="none">
<path d="M640 5194 c-221 -47 -408 -236 -455 -459 -22 -105 -22 -3945 0 -4050
47 -225 235 -413 460 -460 61 -13 931 -15 6910 -15 5979 0 6849 2 6910 15 225
47 413 235 460 460 22 105 22 3945 0 4050 -47 225 -235 413 -460 460 -103 22
-13724 21 -13825 -1z m2548 -951 c-12 -198 -116 -376 -282 -485 -70 -45 -169
-78 -237 -78 l-49 0 0 53 c0 108 60 265 138 363 77 97 223 190 347 220 92 23
88 26 83 -73z m4032 -323 l0 -380 -60 0 -60 0 0 380 0 380 60 0 60 0 0 -380z
m910 224 l0 -156 39 35 c65 59 169 63 245 10 58 -41 88 -107 94 -203 8 -133
-39 -235 -130 -281 -76 -39 -192 -20 -237 37 -25 32 -31 30 -31 -11 l0 -35
-50 0 -50 0 0 380 0 380 60 0 60 0 0 -156z m670 -224 l0 -380 -60 0 -60 0 0
380 0 380 60 0 60 0 0 -380z m3260 223 c0 -149 1 -156 16 -134 22 30 89 61
136 61 73 0 127 -35 159 -105 16 -34 19 -67 19 -232 l0 -193 -54 0 -54 0 -4
183 c-3 157 -6 186 -22 209 -38 58 -140 55 -176 -5 -18 -29 -20 -51 -20 -209
l0 -178 -60 0 -60 0 0 380 0 380 60 0 60 0 0 -157z m-5182 117 c22 -20 29 -64
14 -86 -10 -15 -47 -34 -67 -34 -23 0 -65 46 -65 71 0 31 38 69 70 69 14 0 36
-9 48 -20z m-1619 -62 c153 -473 211 -656 211 -661 0 -4 -27 -7 -59 -7 l-60 0
-35 108 -35 107 -117 0 -118 0 -34 -107 -33 -108 -61 0 c-44 0 -59 3 -56 13 3
6 56 171 118 365 l114 352 72 0 72 0 21 -62z m6391 -73 l0 -65 65 0 65 0 0
-45 0 -45 -65 0 -65 0 0 -150 c0 -149 0 -151 26 -176 20 -21 33 -25 60 -22
l35 4 -3 -45 -3 -46 -71 -3 c-60 -2 -74 0 -98 19 -49 38 -56 72 -56 254 l0
165 -40 0 -40 0 0 45 0 45 40 0 40 0 0 48 0 48 48 16 c26 9 50 17 55 17 4 1 7
-28 7 -64z m-5205 -66 c50 -14 100 -65 113 -115 6 -21 12 -121 14 -222 l3
-182 -52 0 c-50 0 -53 2 -53 25 0 29 -12 32 -31 9 -23 -28 -70 -46 -124 -46
-88 -1 -151 49 -162 129 -15 115 71 195 229 211 l73 7 -3 30 c-8 72 -86 101
-185 67 l-57 -19 -11 34 c-6 19 -8 37 -5 40 3 3 29 14 58 24 60 21 135 24 193
8z m1230 0 c50 -14 100 -65 113 -115 6 -21 12 -121 14 -222 l3 -182 -52 0
c-50 0 -53 2 -53 25 0 29 -12 32 -31 9 -23 -28 -70 -46 -124 -46 -88 -1 -151
49 -162 129 -15 115 71 195 229 211 l73 7 -3 30 c-2 17 -14 41 -28 55 -21 21
-33 25 -82 24 -31 -1 -74 -8 -94 -17 l-37 -16 -11 35 c-7 20 -9 38 -6 41 3 3
29 14 58 24 60 21 135 24 193 8z m1623 -5 c92 -38 142 -135 133 -261 -1 -23
-2 -23 -177 -23 l-176 0 7 -32 c21 -99 112 -142 242 -115 59 13 62 13 67 -7
14 -51 8 -63 -38 -75 -25 -6 -80 -11 -123 -11 -97 0 -169 31 -213 92 -58 79
-65 213 -16 313 54 110 187 164 294 119z m957 -12 c46 -23 85 -62 111 -112 29
-53 27 -210 -3 -265 -49 -91 -127 -138 -233 -138 -136 0 -232 92 -247 238 -14
133 62 259 177 294 51 15 149 7 195 -17z m642 17 c46 -17 92 -69 108 -123 11
-35 15 -99 15 -223 l0 -173 -59 0 -60 0 -3 189 c-3 185 -4 190 -27 215 -19 21
-34 26 -71 26 -26 0 -55 -7 -69 -16 -43 -30 -51 -71 -51 -249 l0 -165 -60 0
-60 0 0 260 0 260 49 0 49 0 7 -40 7 -40 21 26 c41 53 138 78 204 53z m1961
-5 c93 -38 139 -129 133 -261 -1 -23 -1 -23 -177 -23 l-176 0 7 -32 c21 -99
112 -142 242 -115 59 13 62 13 67 -7 14 -51 8 -63 -38 -75 -25 -6 -80 -11
-123 -11 -97 0 -169 31 -213 92 -58 79 -65 213 -16 313 54 110 187 164 294
119z m-7117 -198 l64 -205 13 47 c7 26 36 118 63 205 l50 157 60 0 c45 0 60
-3 57 -12 -3 -7 -47 -124 -98 -260 l-94 -248 -57 0 c-45 0 -58 4 -64 18 -11
27 -145 391 -165 450 l-19 52 63 0 63 0 64 -204z m1149 -66 l0 -260 -60 0 -60
0 0 260 0 260 60 0 60 0 0 -260z m-3535 -171 c135 -41 243 -110 315 -202 l40
-49 -42 -31 c-165 -119 -260 -302 -260 -502 0 -166 49 -302 153 -418 43 -49
173 -147 210 -159 32 -11 -80 -247 -203 -428 -95 -142 -190 -243 -268 -285
-51 -28 -62 -30 -160 -29 -100 0 -110 2 -208 42 -188 77 -303 77 -496 2 -178
-69 -248 -74 -354 -22 -124 61 -331 324 -438 558 -203 447 -216 904 -32 1211
54 90 173 203 267 252 201 104 348 106 601 7 146 -58 178 -58 340 1 119 44
158 56 245 77 46 11 222 -4 290 -25z m6221 -600 c67 -11 182 -47 188 -58 5 -8
-42 -172 -53 -183 -3 -4 -36 4 -71 19 -87 35 -251 44 -329 18 -127 -42 -176
-180 -101 -285 30 -43 104 -89 225 -140 137 -58 198 -94 266 -157 68 -64 104
-131 118 -223 28 -180 -60 -354 -219 -435 -94 -48 -155 -60 -310 -60 -158 0
-216 10 -318 56 -50 22 -62 32 -58 46 3 10 15 53 27 96 12 42 26 77 31 77 5 0
27 -9 49 -21 107 -54 301 -75 407 -44 159 47 213 226 105 346 -23 25 -67 54
-122 80 -290 138 -295 141 -356 203 -91 91 -110 137 -110 266 0 93 3 111 27
162 86 184 340 284 604 237z m-3987 -161 c182 -559 421 -1306 421 -1316 0 -9
-33 -12 -120 -12 -104 0 -120 2 -128 18 -5 9 -37 108 -72 220 l-64 202 -240
-2 -240 -3 -61 -200 c-33 -110 -64 -208 -68 -217 -6 -16 -21 -18 -128 -18 -93
0 -120 3 -116 13 2 6 110 339 238 740 l234 727 147 0 147 0 50 -152z m4771
-133 l0 -135 130 0 130 0 0 -85 0 -85 -130 0 -130 0 0 -298 c0 -289 1 -299 23
-342 31 -63 73 -83 155 -75 l62 6 0 -38 c0 -21 3 -61 6 -90 l7 -51 -59 -12
c-32 -7 -96 -10 -144 -8 -134 6 -214 59 -257 169 -15 38 -18 93 -23 389 l-5
345 -77 3 -78 3 0 84 0 84 78 3 77 3 5 99 5 99 105 32 c58 19 108 34 113 34 4
1 7 -60 7 -134z m-3395 -143 c120 -56 211 -176 250 -327 21 -81 21 -280 0
-360 -38 -144 -128 -271 -233 -328 -159 -86 -364 -73 -473 32 l-49 47 -2 -270
-3 -271 -117 -3 -118 -3 0 644 c0 354 -3 692 -7 750 l-6 107 105 0 106 0 7
-85 7 -85 50 56 c92 100 185 136 330 130 71 -3 98 -9 153 -34z m1230 0 c120
-56 211 -176 250 -327 21 -81 21 -280 0 -360 -38 -144 -128 -271 -233 -328
-159 -86 -364 -73 -473 32 l-49 47 -2 -270 -3 -271 -117 -3 -118 -3 0 644 c0
354 -3 692 -7 750 l-6 107 105 0 106 0 7 -85 7 -85 50 56 c92 100 185 136 330
130 71 -3 98 -9 153 -34z m3213 23 c171 -40 292 -151 353 -321 30 -83 37 -273
15 -368 -47 -201 -195 -351 -383 -391 -229 -49 -441 30 -554 206 -104 162
-116 421 -29 604 41 85 132 183 210 224 108 58 261 76 388 46z m1152 -101 l0
-116 -36 6 c-51 10 -136 -11 -183 -44 -50 -37 -87 -107 -101 -191 -5 -35 -10
-191 -10 -346 l0 -283 -115 0 -115 0 0 413 c0 228 -3 469 -7 536 l-6 122 104
-3 104 -3 3 -97 c1 -54 6 -98 10 -98 4 0 16 19 26 42 36 78 111 143 196 169
14 4 49 8 78 8 l52 1 0 -116z m711 106 c148 -28 257 -129 315 -292 21 -59 36
-194 28 -254 l-6 -54 -354 0 -354 0 0 -28 c0 -47 28 -126 60 -170 82 -114 277
-150 488 -92 37 10 68 17 71 15 2 -2 11 -38 21 -80 l18 -76 -33 -13 c-128 -54
-384 -68 -510 -29 -231 73 -356 274 -342 548 20 362 275 586 598 525z"/>
<path d="M8215 3971 c-56 -25 -85 -84 -85 -177 0 -111 36 -164 117 -171 94 -8
145 55 145 177 0 73 -14 110 -55 148 -27 26 -90 37 -122 23z"/>
<path d="M5156 4140 c-3 -8 -12 -42 -20 -75 -9 -33 -27 -93 -41 -134 -14 -41
-25 -78 -25 -83 0 -4 43 -8 94 -8 l95 0 -15 48 c-8 26 -30 97 -48 157 -19 61
-37 103 -40 95z"/>
<path d="M6405 3795 c-5 -2 -27 -6 -49 -10 -54 -9 -86 -44 -86 -95 0 -71 60
-101 130 -65 39 20 60 63 60 125 0 45 -2 50 -22 49 -13 0 -27 -2 -33 -4z"/>
<path d="M7640 3795 c-8 -2 -32 -7 -54 -10 -54 -9 -86 -44 -86 -95 0 -71 60
-101 130 -65 39 20 60 63 60 125 0 52 -3 54 -50 45z"/>
<path d="M9153 3970 c-31 -18 -53 -50 -67 -97 -7 -23 -7 -23 113 -23 l121 0 0
28 c0 37 -34 90 -66 102 -38 15 -65 12 -101 -10z"/>
<path d="M10061 3955 c-89 -75 -77 -280 19 -330 92 -47 178 25 188 158 9 113
-48 197 -133 197 -32 0 -51 -7 -74 -25z"/>
<path d="M12713 3970 c-31 -18 -53 -50 -67 -97 -7 -23 -7 -23 113 -23 l121 0
0 28 c0 37 -34 90 -66 102 -38 15 -65 12 -101 -10z"/>
<path d="M5372 2774 c-57 -225 -70 -271 -178 -606 -5 -17 9 -18 190 -18 108 0
196 3 196 6 0 4 -31 104 -69 224 -39 119 -82 264 -96 321 -15 57 -28 106 -30
107 -2 2 -8 -13 -13 -34z"/>
<path d="M6612 2404 c-64 -32 -116 -91 -138 -156 -12 -39 -15 -81 -12 -211 3
-143 6 -167 25 -202 49 -92 123 -135 230 -135 116 0 197 60 245 179 19 48 22
75 22 191 1 124 -1 139 -25 190 -36 76 -75 119 -134 146 -70 33 -145 32 -213
-2z"/>
<path d="M7842 2404 c-29 -14 -67 -44 -86 -66 -56 -65 -66 -110 -66 -287 0
-143 2 -160 24 -206 47 -99 121 -145 233 -145 116 0 197 60 245 179 19 48 22
75 22 191 1 124 -1 139 -25 190 -36 76 -75 119 -134 146 -70 33 -145 32 -213
-2z"/>
<path d="M11215 2441 c-154 -38 -249 -236 -217 -453 27 -189 125 -298 268
-298 145 1 247 113 275 303 40 272 -123 497 -326 448z"/>
<path d="M13105 2451 c-97 -25 -179 -121 -200 -233 l-7 -38 247 0 248 0 -6 50
c-11 94 -64 177 -132 205 -41 18 -114 25 -150 16z"/>
</g>
</svg>
